<svg width="20" height="16" fill="none" xmlns="http://www.w3.org/2000/svg"><path d="M10.43.1a1 1 0 0 0-1 .12L4.65 4H1a1 1 0 0 0-1 1v6a1 1 0 0 0 1 1h3.65l4.73 3.78A1 1 0 0 0 10 16a.909.909 0 0 0 .43-.1A1 1 0 0 0 11 15V1a1 1 0 0 0-.57-.9ZM9 12.92l-3.38-2.7A1 1 0 0 0 5 10H2V6h3a1 1 0 0 0 .62-.22L9 3.08v9.84ZM13.14.09a1.01 1.01 0 1 0-.28 2 6 6 0 0 1 0 11.86 1.003 1.003 0 0 0 .14 2h.14a8 8 0 0 0 0-15.82V.09Zm-.46 9.78a1.012 1.012 0 1 0 .32 2c.108-.001.216-.018.32-.05a4 4 0 0 0 0-7.54 1.002 1.002 0 0 0-.64 1.9 2 2 0 0 1 0 3.74v-.05Z" fill="#fff"/></svg>